<svg width="126" height="26" viewBox="0 0 126 26" fill="none" xmlns="http://www.w3.org/2000/svg">
<path d="M51.5859 7.11523L51.6199 6.9892H51.4893H48.4738H48.3935L48.3762 7.06757L46.2214 16.7914L43.7344 7.06443L43.7152 6.9892H43.6376H40.6789H40.6013L40.582 7.06443L38.1255 16.6722L35.9972 7.06757L35.9798 6.9892H35.8996H32.8271H32.6965L32.7306 7.11533L36.2582 20.1447L36.2782 20.2186H36.3548H39.541H39.6176L39.6375 20.1446L42.1296 10.8963L44.622 20.2014L44.6419 20.2755H44.7186H47.9617H48.0383L48.0583 20.2015L51.5859 7.11523ZM55.8704 20.4462C57.4596 20.4462 59.0557 19.6694 59.867 18.3492V20.1755V20.2755H59.967H62.9256H63.0256V20.1755V11.1858C63.0256 9.84788 62.4864 8.73792 61.5305 7.96449C60.5767 7.1927 59.2155 6.76161 57.5773 6.76161C54.2436 6.76161 52.0756 8.54967 51.9584 11.0103L51.9534 11.1151H52.0583H54.9031H54.9886L55.0019 11.0307C55.1623 10.0146 56.0716 9.35128 57.4635 9.35128C58.2153 9.35128 58.8006 9.54617 59.1967 9.89527C59.5911 10.2429 59.8101 10.754 59.8101 11.4134V12.2285L56.4344 12.3945L56.434 12.3945C54.8288 12.4805 53.5684 12.8823 52.7072 13.5684C51.8424 14.2572 51.3893 15.2257 51.3893 16.4203L51.3894 16.4227C51.4478 18.8181 53.3214 20.4462 55.8704 20.4462ZM64.6463 20.1755V20.2755H64.7463H67.8187H67.9187V20.1755V2.42366V2.32366H67.8187H64.7463H64.6463V2.42366V20.1755ZM69.6532 20.1755V20.2755H69.7532H72.8257H72.9257V20.1755V2.42366V2.32366H72.8257H69.7532H69.6532V2.42366V20.1755ZM77.7757 20.2755H77.8757V20.1755V12.153C77.8757 11.3779 78.1246 10.7202 78.5466 10.2575C78.9679 9.7954 79.5665 9.52197 80.2792 9.52197C80.9687 9.52197 81.5248 9.74219 81.9082 10.1257C82.2917 10.5091 82.5119 11.0652 82.5119 11.7547V20.1186V20.2186H82.6119H85.5706H85.6706V20.1186V12.0961C85.6706 11.3505 85.9188 10.7219 86.3399 10.2804C86.7607 9.83933 87.3597 9.57887 88.074 9.57887C88.7928 9.57887 89.3469 9.79943 89.722 10.2014C90.0981 10.6044 90.3068 11.2029 90.3068 11.9823V20.1755V20.2755H90.4068H93.4792H93.5792V20.1755V11.1858C93.5792 9.855 93.1449 8.74725 92.3768 7.97185C91.6086 7.19638 90.5149 6.76161 89.212 6.76161C87.3676 6.76161 85.8388 7.73169 85.1546 9.26259C84.6361 7.68054 83.2642 6.76161 81.474 6.76161C79.7959 6.76161 78.4668 7.66841 77.8188 9.01345V7.0892V6.9892H77.7188H74.7602H74.6602V7.0892V20.1755H74.7033V20.2755H74.7602H74.8601H77.7757ZM95.0861 20.1755V20.2755H95.1861H98.2586H98.3586V20.1755V7.0892V6.9892H98.2586H95.1861H95.0861V7.0892V20.1755ZM103.152 20.2755H103.252V20.1755V12.6082C103.252 11.6894 103.53 10.933 104.015 10.4072C104.499 9.8823 105.196 9.57887 106.053 9.57887C106.916 9.57887 107.539 9.82859 107.949 10.2919C108.36 10.7574 108.571 11.455 108.571 12.3806V20.1755V20.2755H108.671H111.743H111.843V20.1755V11.6978C111.843 10.1725 111.426 8.93655 110.636 8.08108C109.845 7.22451 108.693 6.76161 107.248 6.76161C105.344 6.76161 103.938 7.58281 103.195 9.03769V7.1461V7.0461H103.095H100.136H100.036V7.1461V20.1755H100.079V20.2755H100.136H100.236H103.152ZM122.041 16.1496H121.968L121.946 16.2195C121.62 17.2506 120.585 17.9703 119.197 17.9703C118.226 17.9703 117.428 17.6242 116.873 17.0345C116.317 16.4442 115.997 15.6024 115.997 14.5996V14.5289H125H125.1V14.4289V13.4048C125.1 11.3941 124.511 9.73226 123.445 8.57199C122.378 7.41078 120.842 6.76161 118.969 6.76161C117.066 6.76161 115.501 7.45454 114.414 8.67261C113.327 9.88951 112.724 11.6219 112.724 13.6892C112.724 15.7848 113.327 17.4899 114.429 18.6719C115.533 19.8548 117.125 20.5031 119.083 20.5031C122.191 20.5031 124.52 18.7728 124.928 16.2657L124.947 16.1496H124.829H122.041ZM56.8376 17.9703C56.1997 17.9703 55.6684 17.8038 55.299 17.515C54.9319 17.228 54.7187 16.816 54.7187 16.3065C54.7187 15.8258 54.9174 15.4278 55.2921 15.1334C55.6696 14.8367 56.2312 14.6416 56.9581 14.5856C56.9584 14.5856 56.9588 14.5855 56.9591 14.5855L59.867 14.4209V15.3392C59.867 16.8069 58.5037 17.9703 56.8376 17.9703ZM96.7224 5.48229C97.7426 5.48229 98.5293 4.70007 98.5293 3.73228C98.5293 2.7645 97.7426 1.98228 96.7224 1.98228C95.7021 1.98228 94.9154 2.7645 94.9154 3.73228C94.9154 4.7022 95.7612 5.48229 96.7224 5.48229ZM119.026 9.29438C119.882 9.29438 120.595 9.61124 121.101 10.1451C121.589 10.6589 121.89 11.3789 121.937 12.2237H116.061C116.213 10.5037 117.413 9.29438 119.026 9.29438Z" fill="#13113C" stroke="#13113C" stroke-width="0.2"/>
<path d="M4.36517 15.0337L8.04048 12.5835C8.43251 12.2895 8.97156 12.3385 9.4126 12.5835L12.1078 14.4946C12.5979 14.8377 13.2839 14.7887 13.676 14.2986L16.8612 10.7213C17.2043 10.3293 17.7433 10.2313 18.2334 10.4273L21.2716 11.7994C21.7127 11.9954 22.2027 11.8974 22.5457 11.6034L23.7708 10.4763C24.2119 10.0843 24.5059 9.49621 24.5059 8.85916L24.6529 5.03683C24.7509 2.83164 22.9378 0.969482 20.6836 0.969482L3.97313 0.969482C1.71894 0.969482 -0.0942137 2.83164 0.00379471 5.08583L0.29782 12.4365C0.346824 13.3185 0.836866 14.1026 1.66994 14.4456L3.18907 15.1317C3.5811 15.3277 4.02214 15.2787 4.36517 15.0337Z" fill="#13113C"/>
<path d="M22.0065 14.9357L18.4292 13.3185C18.1842 13.2205 17.8901 13.2695 17.6941 13.4655L13.6268 18.0229C13.4308 18.268 13.0387 18.317 12.7937 18.1209L8.97138 15.3767C8.77536 15.2297 8.48134 15.2297 8.23631 15.3767L4.26697 18.0229C4.07096 18.1209 3.87494 18.17 3.67892 18.0719L1.37573 17.0429C0.983694 16.8468 0.493652 17.1409 0.493652 17.6309L0.640665 21.2082C0.738673 23.3154 2.45382 25.0305 4.61 25.0305H19.9973C22.1045 25.0305 23.8687 23.3644 23.9667 21.2082L24.2117 14.8377C24.2117 14.2986 23.5746 13.9556 23.1336 14.3476L22.6435 14.7887C22.4965 14.9847 22.2515 15.0337 22.0065 14.9357Z" fill="#D0CFD8"/>
</svg>
