<svg width="760" height="40" viewBox="0 0 760 40" fill="none" xmlns="http://www.w3.org/2000/svg">
<rect width="5.46445" height="40" rx="2.73222" fill="#21B062"/>
<rect x="84.7793" width="5.46445" height="40" rx="2.73222" fill="#21B062"/>
<rect x="169.559" width="5.46445" height="40" rx="2.73222" fill="#21B062"/>
<rect x="254.338" width="5.46445" height="40" rx="2.73222" fill="#21B062"/>
<rect x="339.117" width="5.46445" height="40" rx="2.73222" fill="#21B062"/>
<rect x="423.896" width="5.46445" height="40" rx="2.73222" fill="#21B062"/>
<rect x="508.676" width="5.46445" height="40" rx="2.73222" fill="#21B062"/>
<rect x="593.455" width="5.46445" height="40" rx="2.73222" fill="#21B062"/>
<rect x="678.234" width="5.46445" height="40" rx="2.73222" fill="#21B062"/>
<rect x="8.47803" width="5.46445" height="40" rx="2.73222" fill="#21B062"/>
<rect x="93.2573" width="5.46445" height="40" rx="2.73222" fill="#21B062"/>
<rect x="178.037" width="5.46445" height="40" rx="2.73222" fill="#21B062"/>
<rect x="262.816" width="5.46445" height="40" rx="2.73222" fill="#21B062"/>
<rect x="347.595" width="5.46445" height="40" rx="2.73222" fill="#21B062"/>
<rect x="432.374" width="5.46445" height="40" rx="2.73222" fill="#21B062"/>
<rect x="517.154" width="5.46445" height="40" rx="2.73222" fill="#21B062"/>
<rect x="601.933" width="5.46445" height="40" rx="2.73222" fill="#21B062"/>
<rect x="686.712" width="5.46445" height="40" rx="2.73222" fill="#21B062"/>
<rect x="16.9558" width="5.46445" height="40" rx="2.73222" fill="#21B062"/>
<rect x="101.735" width="5.46445" height="40" rx="2.73222" fill="#21B062"/>
<rect x="186.514" width="5.46445" height="40" rx="2.73222" fill="#21B062"/>
<rect x="271.294" width="5.46445" height="40" rx="2.73222" fill="#21B062"/>
<rect x="356.073" width="5.46445" height="40" rx="2.73222" fill="#21B062"/>
<rect x="440.852" width="5.46445" height="40" rx="2.73222" fill="#21B062"/>
<rect x="525.631" width="5.46445" height="40" rx="2.73222" fill="#21B062"/>
<rect x="610.411" width="5.46445" height="40" rx="2.73222" fill="#21B062"/>
<rect x="695.19" width="5.46445" height="40" rx="2.73222" fill="#21B062"/>
<rect x="25.4338" width="5.46445" height="40" rx="2.73222" fill="#21B062"/>
<rect x="110.213" width="5.46445" height="40" rx="2.73222" fill="#21B062"/>
<rect x="194.992" width="5.46445" height="40" rx="2.73222" fill="#21B062"/>
<rect x="279.772" width="5.46445" height="40" rx="2.73222" fill="#21B062"/>
<rect x="364.551" width="5.46445" height="40" rx="2.73222" fill="#DE3618"/>
<rect x="449.33" width="5.46445" height="40" rx="2.73222" fill="#21B062"/>
<rect x="534.109" width="5.46445" height="40" rx="2.73222" fill="#21B062"/>
<rect x="618.889" width="5.46445" height="40" rx="2.73222" fill="#DE3618"/>
<rect x="703.668" width="5.46445" height="40" rx="2.73222" fill="#21B062"/>
<rect x="33.9116" width="5.46445" height="40" rx="2.73222" fill="#21B062"/>
<rect x="118.691" width="5.46445" height="40" rx="2.73222" fill="#21B062"/>
<rect x="203.47" width="5.46445" height="40" rx="2.73222" fill="#21B062"/>
<rect x="288.25" width="5.46445" height="40" rx="2.73222" fill="#21B062"/>
<rect x="373.029" width="5.46445" height="40" rx="2.73222" fill="#21B062"/>
<rect x="457.808" width="5.46445" height="40" rx="2.73222" fill="#21B062"/>
<rect x="542.587" width="5.46445" height="40" rx="2.73222" fill="#21B062"/>
<rect x="627.367" width="5.46445" height="40" rx="2.73222" fill="#21B062"/>
<rect x="712.146" width="5.46445" height="40" rx="2.73222" fill="#21B062"/>
<rect x="42.3896" width="5.46445" height="40" rx="2.73222" fill="#21B062"/>
<rect x="127.169" width="5.46445" height="40" rx="2.73222" fill="#21B062"/>
<rect x="211.948" width="5.46445" height="40" rx="2.73222" fill="#21B062"/>
<rect x="296.728" width="5.46445" height="40" rx="2.73222" fill="#21B062"/>
<rect x="381.507" width="5.46445" height="40" rx="2.73222" fill="#21B062"/>
<rect x="466.286" width="5.46445" height="40" rx="2.73222" fill="#21B062"/>
<rect x="551.065" width="5.46445" height="40" rx="2.73222" fill="#21B062"/>
<rect x="635.845" width="5.46445" height="40" rx="2.73222" fill="#21B062"/>
<rect x="720.624" width="5.46445" height="40" rx="2.73222" fill="#21B062"/>
<rect x="50.8677" width="5.46445" height="40" rx="2.73222" fill="#21B062"/>
<rect x="135.647" width="5.46445" height="40" rx="2.73222" fill="#21B062"/>
<rect x="220.426" width="5.46445" height="40" rx="2.73222" fill="#21B062"/>
<rect x="305.205" width="5.46445" height="40" rx="2.73222" fill="#21B062"/>
<rect x="389.985" width="5.46445" height="40" rx="2.73222" fill="#21B062"/>
<rect x="474.764" width="5.46445" height="40" rx="2.73222" fill="#21B062"/>
<rect x="559.543" width="5.46445" height="40" rx="2.73222" fill="#21B062"/>
<rect x="644.323" width="5.46445" height="40" rx="2.73222" fill="#21B062"/>
<rect x="729.102" width="5.46445" height="40" rx="2.73222" fill="#21B062"/>
<rect x="59.3455" width="5.46445" height="40" rx="2.73222" fill="#21B062"/>
<rect x="144.125" width="5.46445" height="40" rx="2.73222" fill="#21B062"/>
<rect x="228.904" width="5.46445" height="40" rx="2.73222" fill="#21B062"/>
<rect x="313.683" width="5.46445" height="40" rx="2.73222" fill="#21B062"/>
<rect x="398.463" width="5.46445" height="40" rx="2.73222" fill="#21B062"/>
<rect x="483.242" width="5.46445" height="40" rx="2.73222" fill="#21B062"/>
<rect x="568.021" width="5.46445" height="40" rx="2.73222" fill="#21B062"/>
<rect x="652.8" width="5.46445" height="40" rx="2.73222" fill="#21B062"/>
<rect x="737.58" width="5.46445" height="40" rx="2.73222" fill="#21B062"/>
<rect x="67.8235" width="5.46445" height="40" rx="2.73222" fill="#21B062"/>
<rect x="152.603" width="5.46445" height="40" rx="2.73222" fill="#21B062"/>
<rect x="237.382" width="5.46445" height="40" rx="2.73222" fill="#21B062"/>
<rect x="322.161" width="5.46445" height="40" rx="2.73222" fill="#21B062"/>
<rect x="406.94" width="5.46445" height="40" rx="2.73222" fill="#21B062"/>
<rect x="491.72" width="5.46445" height="40" rx="2.73222" fill="#21B062"/>
<rect x="576.499" width="5.46445" height="40" rx="2.73222" fill="#DE3618"/>
<rect x="661.278" width="5.46445" height="40" rx="2.73222" fill="#21B062"/>
<rect x="746.058" width="5.46445" height="40" rx="2.73222" fill="#21B062"/>
<rect x="76.3013" width="5.46445" height="40" rx="2.73222" fill="#21B062"/>
<rect x="161.081" width="5.46445" height="40" rx="2.73222" fill="#21B062"/>
<rect x="245.86" width="5.46445" height="40" rx="2.73222" fill="#21B062"/>
<rect x="330.639" width="5.46445" height="40" rx="2.73222" fill="#21B062"/>
<rect x="415.418" width="5.46445" height="40" rx="2.73222" fill="#21B062"/>
<rect x="500.198" width="5.46445" height="40" rx="2.73222" fill="#DE3618"/>
<rect x="584.977" width="5.46445" height="40" rx="2.73222" fill="#21B062"/>
<rect x="669.756" width="5.46445" height="40" rx="2.73222" fill="#21B062"/>
<rect x="754.536" width="5.46445" height="40" rx="2.73222" fill="#DE3618"/>
</svg>
