<svg width="311" height="40" viewBox="0 0 311 40" fill="none" xmlns="http://www.w3.org/2000/svg">
<rect width="5.46445" height="40" rx="2.73222" fill="#21B062"/>
<rect x="84.7793" width="5.46445" height="40" rx="2.73222" fill="#21B062"/>
<rect x="169.559" width="5.46445" height="40" rx="2.73222" fill="#21B062"/>
<rect x="254.338" width="5.46445" height="40" rx="2.73222" fill="#21B062"/>
<rect x="8.47791" width="5.46445" height="40" rx="2.73222" fill="#21B062"/>
<rect x="93.2572" width="5.46445" height="40" rx="2.73222" fill="#21B062"/>
<rect x="178.036" width="5.46445" height="40" rx="2.73222" fill="#21B062"/>
<rect x="262.816" width="5.46445" height="40" rx="2.73222" fill="#21B062"/>
<rect x="16.9558" width="5.46445" height="40" rx="2.73222" fill="#21B062"/>
<rect x="101.735" width="5.46445" height="40" rx="2.73222" fill="#21B062"/>
<rect x="186.514" width="5.46445" height="40" rx="2.73222" fill="#FFB72B"/>
<rect x="271.294" width="5.46445" height="40" rx="2.73222" fill="#21B062"/>
<rect x="25.4338" width="5.46445" height="40" rx="2.73222" fill="#21B062"/>
<rect x="110.213" width="5.46445" height="40" rx="2.73222" fill="#21B062"/>
<rect x="194.992" width="5.46445" height="40" rx="2.73222" fill="#21B062"/>
<rect x="279.772" width="5.46445" height="40" rx="2.73222" fill="#21B062"/>
<rect x="33.9117" width="5.46445" height="40" rx="2.73222" fill="#21B062"/>
<rect x="118.691" width="5.46445" height="40" rx="2.73222" fill="#21B062"/>
<rect x="203.47" width="5.46445" height="40" rx="2.73222" fill="#21B062"/>
<rect x="288.25" width="5.46445" height="40" rx="2.73222" fill="#21B062"/>
<rect x="42.3896" width="5.46445" height="40" rx="2.73222" fill="#21B062"/>
<rect x="127.169" width="5.46445" height="40" rx="2.73222" fill="#21B062"/>
<rect x="211.948" width="5.46445" height="40" rx="2.73222" fill="#21B062"/>
<rect x="296.728" width="5.46445" height="40" rx="2.73222" fill="#21B062"/>
<rect x="50.8676" width="5.46445" height="40" rx="2.73222" fill="#21B062"/>
<rect x="135.647" width="5.46445" height="40" rx="2.73222" fill="#21B062"/>
<rect x="220.426" width="5.46445" height="40" rx="2.73222" fill="#FFB72B"/>
<rect x="305.205" width="5.46445" height="40" rx="2.73222" fill="#FFB72B"/>
<rect x="59.3455" width="5.46445" height="40" rx="2.73222" fill="#21B062"/>
<rect x="144.125" width="5.46445" height="40" rx="2.73222" fill="#21B062"/>
<rect x="228.904" width="5.46445" height="40" rx="2.73222" fill="#FFB72B"/>
<rect x="67.8235" width="5.46445" height="40" rx="2.73222" fill="#21B062"/>
<rect x="152.603" width="5.46445" height="40" rx="2.73222" fill="#21B062"/>
<rect x="237.382" width="5.46445" height="40" rx="2.73222" fill="#21B062"/>
<rect x="76.3014" width="5.46445" height="40" rx="2.73222" fill="#21B062"/>
<rect x="161.081" width="5.46445" height="40" rx="2.73222" fill="#21B062"/>
<rect x="245.86" width="5.46445" height="40" rx="2.73222" fill="#21B062"/>
</svg>
